HIERARCHY
ROOT newVegas:Hips
{
	OFFSET 0.000000 96.479958 0.000000
	CHANNELS 6 Xposition Yposition Zposition Xrotation Yrotation Zrotation
	JOINT newVegas:Pelvis
	{
		OFFSET 0.000000 0.000000 0.000000
		CHANNELS 3 Xrotation Yrotation Zrotation
		JOINT newVegas:LeftUpLeg
		{
			OFFSET 18.735201 -5.666702 -4.541200
			CHANNELS 3 Xrotation Yrotation Zrotation
			JOINT newVegas:LeftLeg
			{
				OFFSET -0.021200 -31.938179 0.493100
				CHANNELS 3 Xrotation Yrotation Zrotation
				JOINT newVegas:LeftFoot
				{
					OFFSET 0.021200 -31.938179 -4.336299
					CHANNELS 3 Xrotation Yrotation Zrotation
					JOINT newVegas:LeftToeBase
					{
						OFFSET 0.943001 -26.722000 15.023500
						CHANNELS 3 Xrotation Yrotation Zrotation
						End Site
						{
							OFFSET 0.000000 30.670183 0.000000
						}
					}
				}
				JOINT newVegas:Left_PantLeg
				{
					OFFSET 0.663870 -9.044666 -1.108900
					CHANNELS 3 Xrotation Yrotation Zrotation
					End Site
					{
						OFFSET 1.415995 20.635357 0.000000
					}
				}
			}
		}
		JOINT newVegas:RightUpLeg
		{
			OFFSET -18.735201 -5.666702 -4.541200
			CHANNELS 3 Xrotation Yrotation Zrotation
			JOINT newVegas:RightLeg
			{
				OFFSET 0.018946 -31.938133 0.493100
				CHANNELS 3 Xrotation Yrotation Zrotation
				JOINT newVegas:RightFoot
				{
					OFFSET -0.018946 -31.938126 -4.336299
					CHANNELS 3 Xrotation Yrotation Zrotation
					JOINT newVegas:RightToeBase
					{
						OFFSET -0.943001 -26.722004 15.023500
						CHANNELS 3 Xrotation Yrotation Zrotation
						End Site
						{
							OFFSET 0.000000 30.670187 0.000000
						}
					}
				}
				JOINT newVegas:Right_PantLeg
				{
					OFFSET -0.661674 -9.044716 -1.108900
					CHANNELS 3 Xrotation Yrotation Zrotation
					End Site
					{
						OFFSET -1.415958 20.635269 0.000000
					}
				}
			}
		}
	}
	JOINT newVegas:Spine
	{
		OFFSET 0.000000 10.199997 -0.299500
		CHANNELS 3 Xrotation Yrotation Zrotation
		JOINT newVegas:Spine1
		{
			OFFSET 0.000000 11.900002 -1.516600
			CHANNELS 3 Xrotation Yrotation Zrotation
			JOINT newVegas:Spine2
			{
				OFFSET 0.000000 13.600006 -2.842500
				CHANNELS 3 Xrotation Yrotation Zrotation
				JOINT newVegas:Neck
				{
					OFFSET 0.000000 9.624100 -2.890100
					CHANNELS 3 Xrotation Yrotation Zrotation
					JOINT newVegas:Head
					{
						OFFSET 0.000000 14.068802 -1.351900
						CHANNELS 3 Xrotation Yrotation Zrotation
						JOINT newVegas:Hair_Back
						{
							OFFSET 0.000000 3.231903 -17.524799
							CHANNELS 3 Xrotation Yrotation Zrotation
							End Site
							{
								OFFSET 0.000000 19.849884 0.000000
							}
						}
						JOINT newVegas:Hair_Front
						{
							OFFSET 0.000000 31.260406 4.573800
							CHANNELS 3 Xrotation Yrotation Zrotation
							JOINT newVegas:Hair_Front1
							{
								OFFSET 0.000000 2.284103 11.993300
								CHANNELS 3 Xrotation Yrotation Zrotation
								JOINT newVegas:Hair_Front2
								{
									OFFSET 0.000000 2.284103 11.993300
									CHANNELS 3 Xrotation Yrotation Zrotation
									End Site
									{
										OFFSET 0.000000 12.208862 0.000000
									}
								}
							}
						}
						JOINT newVegas:Jowel
						{
							OFFSET 0.000000 -7.458206 6.864100
							CHANNELS 3 Xrotation Yrotation Zrotation
							End Site
							{
								OFFSET 0.000000 19.849884 0.000000
							}
						}
					}
				}
				JOINT newVegas:LeftShoulder
				{
					OFFSET 15.263000 10.923401 -0.547700
					CHANNELS 3 Xrotation Yrotation Zrotation
					JOINT newVegas:LeftArm
					{
						OFFSET 25.438599 -2.830597 -13.032500
						CHANNELS 3 Xrotation Yrotation Zrotation
						JOINT newVegas:LeftForeArm
						{
							OFFSET 29.960503 0.000000 0.000000
							CHANNELS 3 Xrotation Yrotation Zrotation
							JOINT newVegas:LeftHand
							{
								OFFSET 27.849251 0.000000 0.000000
								CHANNELS 3 Xrotation Yrotation Zrotation
								JOINT newVegas:LeftHandThumb1
								{
									OFFSET 4.487587 -3.305161 6.305391
									CHANNELS 3 Xrotation Yrotation Zrotation
									JOINT newVegas:LeftHandThumb2
									{
										OFFSET 5.480453 -3.164139 3.164143
										CHANNELS 3 Xrotation Yrotation Zrotation
										JOINT newVegas:LeftHandThumb3
										{
											OFFSET 5.159721 -2.978973 2.978967
											CHANNELS 3 Xrotation Yrotation Zrotation
											End Site
											{
												OFFSET 2.494507 5.926697 1.738678
											}
										}
									}
								}
								JOINT newVegas:LeftHandIndex1
								{
									OFFSET 18.578728 -0.527832 5.208049
									CHANNELS 3 Xrotation Yrotation Zrotation
									JOINT newVegas:LeftHandIndex2
									{
										OFFSET 3.192009 0.000000 0.000000
										CHANNELS 3 Xrotation Yrotation Zrotation
										JOINT newVegas:LeftHandIndex3
										{
											OFFSET 3.835129 0.000000 0.000000
											CHANNELS 3 Xrotation Yrotation Zrotation
											End Site
											{
												OFFSET -0.034599 3.816971 0.371180
											}
										}
									}
								}
								JOINT newVegas:LeftHandMiddle1
								{
									OFFSET 18.476105 0.000000 0.000000
									CHANNELS 3 Xrotation Yrotation Zrotation
									JOINT newVegas:LeftHandMiddle2
									{
										OFFSET 3.324875 0.000000 0.000000
										CHANNELS 3 Xrotation Yrotation Zrotation
										JOINT newVegas:LeftHandMiddle3
										{
											OFFSET 4.596550 0.000000 0.000000
											CHANNELS 3 Xrotation Yrotation Zrotation
											End Site
											{
												OFFSET 0.057701 4.578827 0.399218
											}
										}
									}
								}
								JOINT newVegas:LeftHandRing1
								{
									OFFSET 17.732719 0.121887 -4.201567
									CHANNELS 3 Xrotation Yrotation Zrotation
									JOINT newVegas:LeftHandRing2
									{
										OFFSET 2.733170 0.000000 0.000000
										CHANNELS 3 Xrotation Yrotation Zrotation
										JOINT newVegas:LeftHandRing3
										{
											OFFSET 3.178268 0.000000 0.000000
											CHANNELS 3 Xrotation Yrotation Zrotation
											End Site
											{
												OFFSET 0.119102 3.170624 0.185394
											}
										}
									}
								}
								JOINT newVegas:LeftHandPinky1
								{
									OFFSET 15.989624 -0.606689 -7.535461
									CHANNELS 3 Xrotation Yrotation Zrotation
									JOINT newVegas:LeftHandPinky2
									{
										OFFSET 2.538986 0.000000 0.000000
										CHANNELS 3 Xrotation Yrotation Zrotation
										JOINT newVegas:LeftHandPinky3
										{
											OFFSET 2.593102 0.000000 0.000000
											CHANNELS 3 Xrotation Yrotation Zrotation
											End Site
											{
												OFFSET -0.150902 2.584198 0.152708
											}
										}
									}
								}
							}
							JOINT newVegas:Left_Sleeve
							{
								OFFSET 0.267448 -0.649796 0.577675
								CHANNELS 3 Xrotation Yrotation Zrotation
								End Site
								{
									OFFSET 0.000000 15.991241 0.000000
								}
							}
							JOINT newVegas:Left_CapeC
							{
								OFFSET 15.715958 -8.608795 -6.935905
								CHANNELS 3 Xrotation Yrotation Zrotation
								JOINT newVegas:Left_CapeC1
								{
									OFFSET 0.000000 -8.688499 0.000000
									CHANNELS 3 Xrotation Yrotation Zrotation
									End Site
									{
										OFFSET 0.000000 8.688499 0.000000
									}
								}
							}
						}
						JOINT newVegas:Left_CapeB
						{
							OFFSET 26.118385 -8.608795 -7.079235
							CHANNELS 3 Xrotation Yrotation Zrotation
							JOINT newVegas:Left_CapeB1
							{
								OFFSET 0.000000 -8.688499 0.000000
								CHANNELS 3 Xrotation Yrotation Zrotation
								End Site
								{
									OFFSET 0.000000 8.688499 0.000000
								}
							}
						}
						JOINT newVegas:Left_CapeA
						{
							OFFSET 5.115639 -8.608795 -10.395809
							CHANNELS 3 Xrotation Yrotation Zrotation
							JOINT newVegas:Left_CapeA1
							{
								OFFSET 0.000000 -8.688499 0.000000
								CHANNELS 3 Xrotation Yrotation Zrotation
								End Site
								{
									OFFSET 0.000000 8.688499 0.000000
								}
							}
						}
					}
				}
				JOINT newVegas:RightShoulder
				{
					OFFSET -15.263000 10.923401 -0.547700
					CHANNELS 3 Xrotation Yrotation Zrotation
					JOINT newVegas:RightArm
					{
						OFFSET -25.438599 -2.830597 -13.032500
						CHANNELS 3 Xrotation Yrotation Zrotation
						JOINT newVegas:RightForeArm
						{
							OFFSET -29.960503 0.000000 0.000000
							CHANNELS 3 Xrotation Yrotation Zrotation
							JOINT newVegas:RightHand
							{
								OFFSET -27.849251 0.000000 0.000000
								CHANNELS 3 Xrotation Yrotation Zrotation
								JOINT newVegas:RightHandThumb1
								{
									OFFSET -4.487587 -3.305161 6.305391
									CHANNELS 3 Xrotation Yrotation Zrotation
									JOINT newVegas:RightHandThumb2
									{
										OFFSET -5.480453 -3.164139 3.164143
										CHANNELS 3 Xrotation Yrotation Zrotation
										JOINT newVegas:RightHandThumb3
										{
											OFFSET -5.159721 -2.978973 2.978967
											CHANNELS 3 Xrotation Yrotation Zrotation
											End Site
											{
												OFFSET -2.494507 5.926697 1.738678
											}
										}
									}
								}
								JOINT newVegas:RightHandIndex1
								{
									OFFSET -18.578728 -0.527832 5.208049
									CHANNELS 3 Xrotation Yrotation Zrotation
									JOINT newVegas:RightHandIndex2
									{
										OFFSET -3.192009 0.000000 0.000000
										CHANNELS 3 Xrotation Yrotation Zrotation
										JOINT newVegas:RightHandIndex3
										{
											OFFSET -3.835129 0.000000 0.000000
											CHANNELS 3 Xrotation Yrotation Zrotation
											End Site
											{
												OFFSET 0.034599 3.816971 0.371180
											}
										}
									}
								}
								JOINT newVegas:RightHandMiddle1
								{
									OFFSET -18.476105 0.000000 0.000000
									CHANNELS 3 Xrotation Yrotation Zrotation
									JOINT newVegas:RightHandMiddle2
									{
										OFFSET -3.324875 0.000000 0.000000
										CHANNELS 3 Xrotation Yrotation Zrotation
										JOINT newVegas:RightHandMiddle3
										{
											OFFSET -4.596550 0.000000 0.000000
											CHANNELS 3 Xrotation Yrotation Zrotation
											End Site
											{
												OFFSET -0.057701 4.578827 0.399218
											}
										}
									}
								}
								JOINT newVegas:RightHandRing1
								{
									OFFSET -17.732719 0.121887 -4.201567
									CHANNELS 3 Xrotation Yrotation Zrotation
									JOINT newVegas:RightHandRing2
									{
										OFFSET -2.733170 0.000000 0.000000
										CHANNELS 3 Xrotation Yrotation Zrotation
										JOINT newVegas:RightHandRing3
										{
											OFFSET -3.178268 0.000000 0.000000
											CHANNELS 3 Xrotation Yrotation Zrotation
											End Site
											{
												OFFSET -0.119102 3.170624 0.185394
											}
										}
									}
								}
								JOINT newVegas:RightHandPinky1
								{
									OFFSET -15.989624 -0.606689 -7.535461
									CHANNELS 3 Xrotation Yrotation Zrotation
									JOINT newVegas:RightHandPinky2
									{
										OFFSET -2.538986 0.000000 0.000000
										CHANNELS 3 Xrotation Yrotation Zrotation
										JOINT newVegas:RightHandPinky3
										{
											OFFSET -2.593102 0.000000 0.000000
											CHANNELS 3 Xrotation Yrotation Zrotation
											End Site
											{
												OFFSET 0.150902 2.584198 0.152708
											}
										}
									}
								}
							}
							JOINT newVegas:Right_CapeC
							{
								OFFSET -15.715958 -8.608795 -6.935905
								CHANNELS 3 Xrotation Yrotation Zrotation
								JOINT newVegas:Right_CapeC1
								{
									OFFSET 0.000000 -8.688499 0.000000
									CHANNELS 3 Xrotation Yrotation Zrotation
									End Site
									{
										OFFSET 0.000000 8.688499 0.000000
									}
								}
							}
							JOINT newVegas:Right_Sleeve
							{
								OFFSET -0.267448 -0.649994 0.577675
								CHANNELS 3 Xrotation Yrotation Zrotation
								End Site
								{
									OFFSET 0.000000 15.991302 0.000000
								}
							}
						}
						JOINT newVegas:Right_CapeA
						{
							OFFSET -5.115540 -8.608795 -10.395824
							CHANNELS 3 Xrotation Yrotation Zrotation
							JOINT newVegas:Right_CapeA1
							{
								OFFSET 0.000000 -8.688499 0.000000
								CHANNELS 3 Xrotation Yrotation Zrotation
								End Site
								{
									OFFSET 0.000000 8.688499 0.000000
								}
							}
						}
						JOINT newVegas:Right_CapeB
						{
							OFFSET -26.118187 -8.608795 -7.079266
							CHANNELS 3 Xrotation Yrotation Zrotation
							JOINT newVegas:Right_CapeB1
							{
								OFFSET 0.000000 -8.688499 0.000000
								CHANNELS 3 Xrotation Yrotation Zrotation
								End Site
								{
									OFFSET 0.000000 8.688499 0.000000
								}
							}
						}
					}
				}
				JOINT newVegas:Left_Collar
				{
					OFFSET 18.625099 8.655502 8.828100
					CHANNELS 3 Xrotation Yrotation Zrotation
					JOINT newVegas:Left_Collar1
					{
						OFFSET 14.783401 10.540405 -1.259500
						CHANNELS 3 Xrotation Yrotation Zrotation
						End Site
						{
							OFFSET 0.000000 18.199875 0.000000
						}
					}
				}
				JOINT newVegas:Collar_Back
				{
					OFFSET 0.000000 15.630707 -20.132601
					CHANNELS 3 Xrotation Yrotation Zrotation
					End Site
					{
						OFFSET 0.000000 22.523010 0.000000
					}
				}
				JOINT newVegas:Left_Peck
				{
					OFFSET 17.239599 -5.132599 25.482599
					CHANNELS 3 Xrotation Yrotation Zrotation
					End Site
					{
						OFFSET 0.000000 22.523010 0.000000
					}
				}
				JOINT newVegas:Right_Peck
				{
					OFFSET -17.239599 -5.132202 25.482599
					CHANNELS 3 Xrotation Yrotation Zrotation
					End Site
					{
						OFFSET 0.000000 22.523010 0.000000
					}
				}
				JOINT newVegas:Right_Collar
				{
					OFFSET -18.625099 8.655792 8.828100
					CHANNELS 3 Xrotation Yrotation Zrotation
					JOINT newVegas:Right_Collar1
					{
						OFFSET -14.783401 10.539993 -1.259500
						CHANNELS 3 Xrotation Yrotation Zrotation
						End Site
						{
							OFFSET 0.000000 18.199631 0.000000
						}
					}
				}
			}
		}
		JOINT newVegas:Belly
		{
			OFFSET 0.000000 -6.540398 9.014299
			CHANNELS 3 Xrotation Yrotation Zrotation
			End Site
			{
				OFFSET 0.000000 11.566666 0.000000
			}
		}
	}
	JOINT newVegas:ElvisFacialAnim_Joint
	{
		OFFSET 1.000000 -95.330101 -8.825800
		CHANNELS 3 Xrotation Yrotation Zrotation
		End Site
		{
			OFFSET 0.000000 35.315800 0.000000
		}
	}
}
MOTION
Frames: 4
Frame Time: 0.016667
-2.784461 87.826920 2.834685 -6.078109 -42.937991 -3.787949 -0.000001 -0.000003 -0.000000 -34.518892 3.256227 16.624645 38.581597 -16.721314 -0.500580 -1.753255 2.465424 -10.669571 0.000000 -0.000000 0.000000 0.000000 -0.000005 0.000000 1.066350 -13.655870 -18.455163 33.775702 -7.734633 -0.246107 -25.580001 -6.495543 21.368493 -0.000000 0.000002 0.000000 -0.000002 0.000003 -0.000000 5.850903 4.525535 -1.457856 11.836802 9.036870 -3.086776 11.836812 9.036864 -3.086782 -0.805196 -0.192662 0.082042 -0.805187 -0.192664 0.082040 -0.000000 0.000000 -0.000000 -0.805192 -0.192656 0.082040 -0.805187 -0.192656 0.082040 -0.000000 0.000002 -0.000000 -0.000000 0.000000 -0.000001 1.392489 -0.696039 -7.877868 -14.270856 2.385511 -63.280746 9.855317 -47.499338 5.919335 16.172163 0.901949 18.796334 9.163415 4.814158 -5.499020 -0.335221 0.032296 0.783671 0.000001 0.000000 -0.000004 -0.901997 -6.980955 -3.808334 0.033592 0.804058 -16.418750 0.000003 -0.000000 -0.000001 1.947936 9.683066 -14.539690 -0.463655 -1.564329 -21.881319 0.000003 -0.000001 0.000000 2.605969 14.896781 -31.345196 -0.576912 -2.712552 -32.011420 0.000005 0.000003 0.000004 4.170703 18.495005 -34.987262 -0.707100 -5.788826 -39.372810 0.000001 0.000000 0.000000 -0.000001 -0.000000 0.000001 -0.000001 -0.000000 0.000001 -0.000002 -0.000000 0.000001 0.000000 0.000000 0.000002 0.000000 0.000000 0.000002 0.000000 0.000000 0.000002 0.000001 -0.000000 0.000002 1.409764 9.464717 9.801442 1.234166 -24.280867 60.535536 -6.660172 41.889007 8.039900 6.224108 12.306677 11.672632 -8.895690 -4.903146 -0.383765 7.905222 -19.193009 -2.856826 0.000001 -0.000001 0.000001 -1.085607 -1.215462 4.525572 0.141678 -1.114001 16.942822 -0.000000 -0.000001 -0.000001 -0.663702 -2.903876 12.731741 -0.661484 1.814916 30.579047 0.000001 0.000000 -0.000001 2.423541 -7.404536 21.763337 -0.989846 3.764229 37.431219 -0.000000 -0.000001 -0.000001 3.480944 -10.055100 24.322597 -1.458332 7.871985 41.091999 0.000000 -0.000002 0.000003 -0.000000 -0.000001 0.000002 -0.000000 -0.000001 0.000002 -0.000000 -0.000001 0.000002 -0.000001 0.000003 -0.000001 -0.000001 0.000003 -0.000001 -0.000001 0.000003 -0.000001 -0.000001 0.000003 -0.000002 0.000001 -0.000003 0.000000 0.000001 -0.000003 0.000000 0.000001 -0.000003 0.000000 0.000001 -0.000003 0.000000 0.000001 -0.000003 0.000000 0.000001 -0.000003 0.000000 0.000001 -0.000003 0.000000 0.000000 -0.000001 -0.000000 -0.000001 -0.000003 -0.000000 
-2.703954 87.683487 2.485494 -4.762719 -41.647454 -3.408775 -0.000000 0.000001 0.000000 -36.911329 3.790217 16.858966 39.155180 -15.042161 0.704710 -0.725731 0.766127 -10.566198 -0.000000 0.000003 -0.000000 0.000001 -0.000000 0.000001 0.414304 -13.729462 -17.771746 33.960821 -7.497993 -0.051209 -25.695477 -6.406251 21.299349 0.000000 0.000000 0.000000 -0.000002 0.000001 -0.000001 5.898081 4.439277 -1.427233 11.918894 8.877100 -2.961021 11.918890 8.877118 -2.961028 -0.878854 -0.247962 0.034659 -0.878841 -0.247969 0.034659 -0.000001 -0.000000 0.000001 -0.878780 -0.247963 0.034659 -0.878838 -0.247974 0.034663 -0.000002 0.000003 -0.000000 -0.000001 -0.000000 0.000000 1.570214 -1.339777 -7.270732 -11.927846 2.709218 -62.623860 11.392382 -50.094902 6.156096 15.214473 1.370628 16.884514 9.193351 5.062681 -5.652787 -0.335223 0.032313 0.783662 0.000003 -0.000001 -0.000001 -0.796936 -6.938157 -3.289526 0.025958 0.778732 -16.636994 0.000002 -0.000002 0.000003 1.901946 9.732978 -14.095535 -0.466264 -1.570608 -21.943779 -0.000002 -0.000001 -0.000000 2.724080 14.868091 -31.650420 -0.590210 -2.733310 -32.416488 0.000003 -0.000001 -0.000000 4.123988 18.303036 -35.054006 -0.711775 -5.794210 -39.703985 -0.000003 -0.000002 0.000000 -0.000003 -0.000001 0.000002 -0.000003 -0.000001 0.000002 -0.000003 -0.000000 0.000002 0.000000 -0.000001 -0.000001 0.000000 -0.000001 -0.000002 0.000000 -0.000001 -0.000001 0.000001 0.000000 -0.000002 1.547680 9.347145 9.092341 0.556996 -22.906431 60.241367 -3.542690 42.903898 5.840067 7.677649 11.184450 10.633519 -8.650335 -5.353451 -1.233075 7.621879 -18.559350 -2.849219 -0.000000 0.000000 0.000001 -1.069536 -1.687644 5.364275 0.057424 -0.857534 19.622039 -0.000000 0.000001 -0.000000 -0.869348 -2.826907 14.623777 -0.785360 2.015691 33.206075 0.000001 0.000002 0.000000 2.549544 -6.904360 24.300650 -1.124986 3.935001 39.943950 -0.000002 0.000002 0.000000 3.462086 -9.593484 26.501021 -1.572220 7.998027 43.304342 0.000000 -0.000002 -0.000001 0.000003 -0.000000 0.000003 0.000001 -0.000001 -0.000001 0.000003 -0.000000 0.000003 -0.000002 -0.000001 0.000002 -0.000002 0.000000 -0.000001 -0.000002 -0.000001 0.000002 -0.000002 -0.000000 -0.000000 0.000001 0.000001 -0.000000 0.000001 0.000001 -0.000000 0.000001 0.000001 -0.000000 0.000001 0.000001 -0.000000 0.000001 0.000001 -0.000000 0.000001 0.000001 -0.000000 0.000001 0.000001 -0.000000 0.000000 -0.000000 -0.000000 -0.000000 0.000001 0.000000 
-2.620666 87.492950 2.086018 -3.369625 -40.356856 -3.164732 0.000000 0.000003 0.000000 -39.472404 3.883674 17.472322 39.638149 -12.924207 1.508138 0.354788 -1.090600 -10.552216 -0.000000 0.000001 0.000000 0.000000 -0.000002 -0.000000 -0.741352 -14.599106 -16.691463 34.274159 -6.719453 -0.994172 -25.667400 -6.375889 21.548453 -0.000000 0.000002 -0.000000 0.000000 0.000000 -0.000000 5.948043 4.338493 -1.374767 12.004171 8.695477 -2.784135 12.004168 8.695494 -2.784138 -0.879804 -0.288345 -0.052779 -0.879805 -0.288348 -0.052776 0.000001 -0.000000 -0.000000 -0.879800 -0.288336 -0.052778 -0.879813 -0.288326 -0.052781 0.000000 0.000000 -0.000000 0.000001 -0.000000 0.000000 1.744172 -1.717846 -6.596196 -9.656322 2.899157 -62.029292 12.853445 -52.487033 6.201635 14.224887 1.951093 15.624059 9.323765 5.688839 -5.949676 -0.335208 0.032318 0.783677 0.000001 -0.000003 -0.000001 -0.782981 -6.833238 -3.456152 0.013092 0.736812 -16.998789 -0.000001 -0.000002 0.000000 1.951610 9.750303 -14.576705 -0.472442 -1.585733 -22.093630 0.000001 0.000001 -0.000001 3.028791 14.536813 -33.148445 -0.631085 -2.795167 -33.635728 0.000006 0.000001 0.000001 4.069980 17.795450 -35.410914 -0.726084 -5.810360 -40.707470 0.000001 -0.000002 0.000002 -0.000001 0.000001 -0.000001 -0.000001 0.000001 -0.000001 -0.000002 0.000001 -0.000001 0.000000 0.000001 -0.000000 0.000001 0.000001 -0.000002 0.000000 0.000001 -0.000000 0.000001 0.000000 -0.000000 1.665585 8.672810 8.386893 -0.517100 -21.343892 59.835053 -0.867269 43.424051 3.841164 9.539184 9.854833 10.594319 -8.424786 -5.710914 -1.809457 7.405753 -18.074636 -2.841192 0.000002 0.000001 0.000001 -1.037039 -2.082859 6.381567 -0.021292 -0.648459 21.839559 -0.000001 -0.000000 -0.000001 -1.065002 -2.741163 16.363897 -0.904117 2.190640 35.561137 -0.000000 0.000000 -0.000002 2.642178 -6.487994 26.411332 -1.248712 4.078755 42.132906 0.000001 -0.000001 -0.000000 3.458236 -9.126082 28.634622 -1.708306 8.136604 45.833438 -0.000001 0.000002 -0.000000 0.000001 -0.000001 0.000003 0.000001 -0.000001 0.000002 0.000001 -0.000001 0.000003 -0.000001 0.000001 0.000002 -0.000001 0.000002 -0.000000 -0.000001 0.000001 0.000002 -0.000001 0.000002 -0.000000 0.000000 -0.000001 0.000001 0.000000 -0.000001 0.000001 0.000000 -0.000001 0.000001 0.000000 -0.000001 0.000001 0.000000 -0.000001 0.000001 0.000000 -0.000001 0.000001 0.000000 -0.000001 0.000001 0.000000 -0.000004 0.000000 0.000000 0.000003 0.000000 
-2.551419 87.234726 1.635122 -1.926738 -39.068747 -2.984872 -0.000000 -0.000001 0.000000 -42.273403 4.003568 18.362385 40.147401 -10.582293 2.182650 1.366972 -3.212216 -10.483644 -0.000000 0.000003 0.000000 -0.000000 0.000003 0.000001 -2.186747 -15.585175 -15.475388 34.945638 -5.836406 -2.278849 -25.727395 -6.384735 21.924996 0.000000 0.000003 -0.000000 0.000002 -0.000001 0.000000 6.002224 4.228822 -1.329839 12.097065 8.496684 -2.607073 12.097063 8.496697 -2.607070 -0.878671 -0.324797 -0.131032 -0.878685 -0.324780 -0.131045 0.000001 0.000001 0.000000 -0.878667 -0.324705 -0.131064 -0.878587 -0.324864 -0.131036 -0.000001 0.000002 -0.000001 0.000001 0.000001 0.000001 1.920547 -2.204490 -5.946348 -7.362922 3.228196 -61.378252 14.333922 -54.674028 6.292108 13.459736 1.934169 13.988609 9.552683 6.521015 -6.281346 -0.335199 0.032288 0.783656 -0.000000 0.000001 -0.000003 -0.845283 -6.711942 -4.125691 -0.007810 0.670581 -17.571691 -0.000000 0.000000 -0.000003 2.022881 9.683087 -15.641246 -0.484473 -1.614729 -22.381762 0.000004 -0.000000 0.000001 3.325916 14.067968 -34.924509 -0.685059 -2.872674 -35.188837 0.000000 0.000003 0.000001 4.168851 17.353830 -36.084005 -0.747012 -5.832970 -42.138630 -0.000001 -0.000000 0.000003 -0.000002 0.000001 -0.000002 -0.000002 0.000001 -0.000002 -0.000003 0.000001 -0.000002 -0.000001 -0.000002 0.000001 -0.000001 -0.000003 -0.000001 -0.000001 -0.000002 0.000001 -0.000001 -0.000002 0.000001 1.789071 8.381569 7.651965 -1.251860 -20.026760 59.610592 1.393154 43.948545 1.818029 11.192232 8.642877 11.211493 -7.961397 -5.906368 -2.217070 7.208754 -17.631841 -2.832176 -0.000000 -0.000001 -0.000000 -0.983919 -2.462985 7.369491 -0.096626 -0.468452 23.776568 -0.000000 -0.000000 -0.000001 -1.250095 -2.657356 17.910298 -1.020517 2.348293 37.744257 0.000001 0.000001 -0.000002 2.681787 -6.018244 28.379873 -1.362749 4.201930 44.070549 -0.000000 -0.000001 -0.000001 3.439297 -8.676269 30.575263 -1.840094 8.259817 48.182975 -0.000001 -0.000000 -0.000002 -0.000001 -0.000000 0.000002 -0.000001 -0.000001 0.000000 -0.000001 0.000000 0.000000 0.000001 0.000002 -0.000001 0.000001 0.000003 -0.000002 0.000001 0.000002 -0.000001 0.000001 0.000003 -0.000001 -0.000000 -0.000000 0.000000 -0.000000 -0.000000 0.000000 -0.000000 -0.000000 0.000000 -0.000000 -0.000000 0.000000 -0.000000 -0.000000 0.000000 -0.000000 -0.000000 0.000000 -0.000000 -0.000000 0.000000 0.000000 -0.000000 0.000000 -0.000000 -0.000001 0.000000 
